<svg xmlns="http://www.w3.org/2000/svg" viewBox="0 0 64 64">
  <rect width="64" height="64" fill="#BCD1CA"/>
  <path fill="#FAF9F5" d="M33.5 7.5 C 43.2 6.2, 52.8 13.4, 53.8 25.6 C 54.8 37.4, 47.6 48.8, 34.6 50.1 C 22.3 51.3, 10.8 43.7, 10 31.2 C 9.3 19.2, 22.9 8.9, 33.5 7.5 Z"/>
  <g fill="none" stroke="#141413" stroke-width="4.6" stroke-linecap="round">
    <path d="M27.4 20.6 C 27.1 17.6, 36.9 17.4, 36.8 20.9 L 36.7 29.4 C 36.8 33.4, 27.3 33.6, 27.5 29.8 Z"/>
    <path d="M22.4 30.1 C 22.1 39.6, 42 39.9, 41.8 30.5"/>
    <path d="M32.1 40.1 L 32.1 45.4"/>
    <path d="M26.3 47.2 L 38 46.6"/>
  </g>
  <circle cx="44.2" cy="19.8" r="3.4" fill="#141413"/>
</svg>
