<svg xmlns="http://www.w3.org/2000/svg" viewBox="0 0 64 64">
  <rect width="64" height="64" fill="#BCD1CA"/>
  <path fill="#FAF9F5" d="M31.9 8.1 C 42.6 6.3, 52.7 13.9, 53.6 25.9 C 54.5 37.7, 46.9 49.3, 33.7 50.4 C 21.3 51.5, 10.5 43.3, 9.9 30.8 C 9.3 18.5, 21.1 9.9, 31.9 8.1 Z"/>
  <g fill="none" stroke="#141413" stroke-width="4.4" stroke-linecap="round">
    <path d="M24.7 24.9 L 24.4 33.1"/>
    <path d="M31.8 20.2 L 32.1 37.8"/>
    <path d="M39.3 25.7 L 39.6 32.3"/>
    <path d="M16.6 36.3 C 20.2 45.9, 31.7 50.3, 41.1 46.2 C 46.6 43.7, 49.9 38.5, 49.7 33.2"/>
    <path d="M16.6 36.3 C 15.2 32.8, 15.8 29.2, 18.1 26.8"/>
  </g>
  <circle cx="46.4" cy="19.9" r="3.4" fill="#141413"/>
</svg>
